<svg xmlns="http://www.w3.org/2000/svg" xmlns:xlink="http://www.w3.org/1999/xlink" width="345.111" height="184.269" viewBox="0 0 345.111 184.269">
  <defs>
    <clipPath id="clip-path">
      <rect id="Rectangle_1" data-name="Rectangle 1" width="436.111" height="272.269" transform="translate(0.5 0.5)" fill="none"/>
    </clipPath>
    <clipPath id="clip-Artboard_43">
      <rect width="345.111" height="184.269"/>
    </clipPath>
  </defs>
  <g id="Artboard_43" data-name="Artboard 43" clip-path="url(#clip-Artboard_43)">
    <g id="Group_7" data-name="Group 7" transform="translate(-46 -44.5)">
      <g id="Group_4" data-name="Group 4">
        <g id="Group_3" data-name="Group 3" clip-path="url(#clip-path)">
          <g id="Group_2" data-name="Group 2">
            <g id="Group_1" data-name="Group 1">
              <path id="Path_1" data-name="Path 1" d="M207.98,94.768a21.1,21.1,0,0,0,2.344,1.356,4.252,4.252,0,0,0,1.865.489,2.5,2.5,0,0,0,2.366-1.779c2.319-5.466,2.926-11.866,1.809-19.026-.118-.754-.118-.754-.952-.754h-4.947l1.244-2.257a2.513,2.513,0,0,1,2.534-1.624,8.921,8.921,0,0,0,1.41-.078,2.346,2.346,0,0,0-.042-.79l-.026-.276c-.009-.078-.02-.164-.025-.247-.678-5.858-.788-13.354,4.021-19.886.439-.588.62-1.119.49-1.391-.123-.25-.558-.317-.9-.33-.2-.006-.4-.011-.612-.011a18.521,18.521,0,0,0-6.843,1.316c-7.762,3.066-13.542,11.2-14.422,21q-.119,1.294-.118,2.621c0,.6.016,1.187.054,1.769C197.732,83.231,201.782,90.662,207.98,94.768Z" fill="#ba0c2f"/>
              <path id="Path_2" data-name="Path 2" d="M220.713,69.664l.015.1.11.658c.117.733.117.733.505.733h7.985l-1.018,1.843a4.324,4.324,0,0,1-.943,1.2c-.046.037-.086.078-.126.112a5.151,5.151,0,0,1-3.237.745h-2.038c-.31,0-.391.051-.409.067a1.321,1.321,0,0,0-.026.625c.683,7.885-.075,14.4-2.255,19.365a2.543,2.543,0,0,0-.026,2.38.991.991,0,0,0,.95.478,18.494,18.494,0,0,0,5.579-1.418c7.847-3.311,13.533-11.848,14.09-21.839.032-.533.065-1.068.065-1.607,0-.946-.057-1.881-.145-2.8a25.914,25.914,0,0,0-9.208-17.8,20.486,20.486,0,0,0-3.291-2.16,2.4,2.4,0,0,0-3.538.783C218.741,57.56,219.657,63.169,220.713,69.664Z" fill="#ba0c2f"/>
              <path id="Path_3" data-name="Path 3" d="M187.18,77.965c-.092-.594-.163-1.624-.214-2.72a4.244,4.244,0,0,0-4.533-4.034C125.585,75.263,77.17,88.7,48.181,107.256a.034.034,0,0,0,.032.059C80.051,91.847,129.747,80.916,187.18,77.965Z" fill="#ba0c2f"/>
              <path id="Path_4" data-name="Path 4" d="M218.554,217.875c-70.524,0-132.822-11.924-170.333-30.146a.034.034,0,0,0-.033.059c34.965,22.373,98.18,37.317,170.366,37.317s135.4-14.943,170.362-37.314a.034.034,0,0,0-.033-.06C351.371,205.952,289.075,217.875,218.554,217.875Z" fill="#ba0c2f"/>
              <path id="Path_5" data-name="Path 5" d="M388.931,107.258c-28.989-18.553-77.406-31.994-134.256-36.047a4.245,4.245,0,0,0-4.534,4.034c-.05,1.1-.121,2.126-.213,2.72,57.435,2.951,107.133,13.883,138.971,29.352A.034.034,0,0,0,388.931,107.258Z" fill="#ba0c2f"/>
            </g>
            <path id="Path_6" data-name="Path 6" d="M384,116.2c-27.89-15.494-75.875-26.719-132.373-29.91a6.42,6.42,0,0,0-5.853,3.116,31.741,31.741,0,0,1-54.445,0,6.417,6.417,0,0,0-5.851-3.116C128.981,89.477,81,100.7,53.106,116.2a9.609,9.609,0,0,0-4.917,8.409V170.3a9.654,9.654,0,0,0,4.975,8.445c33.21,18.421,94.843,30.8,165.39,30.8s132.18-12.375,165.389-30.8a9.653,9.653,0,0,0,4.976-8.445V124.605A9.609,9.609,0,0,0,384,116.2Z"/>
          </g>
        </g>
      </g>
      <g id="Group_6" data-name="Group 6">
        <path id="Path_7" data-name="Path 7" d="M287.553,144.927a19.155,19.155,0,0,0-18.875-18.942H258.227v37.957h10.451A18.964,18.964,0,0,0,287.553,144.927Zm-23.158,12.785V132.15h4.012a12.835,12.835,0,0,1,12.866,12.777,12.689,12.689,0,0,1-12.866,12.785Z" fill="#fff"/>
        <path id="Path_8" data-name="Path 8" d="M211.866,144.927a19.156,19.156,0,0,0-18.874-18.942H182.541v37.957h10.442A18.967,18.967,0,0,0,211.866,144.927Zm-23.154,12.785V132.15h4.015a12.838,12.838,0,0,1,12.863,12.777,12.687,12.687,0,0,1-12.863,12.785Z" fill="#fff"/>
        <path id="Path_9" data-name="Path 9" d="M227.1,153.862h12.346l3.947,10.079h6.82l-14.887-37.955h-3.993L216.49,163.943h6.671Zm6.173-15.716,3.951,10.059h-7.906Z" fill="#fff"/>
        <path id="Path_10" data-name="Path 10" d="M311.915,163.89c10.465,0,18.657-8.372,18.657-19.066a18.607,18.607,0,0,0-18.657-18.96c-10.019,0-18.179,8.506-18.179,18.96C293.736,155.336,301.9,163.89,311.915,163.89Zm0-31.951a12.972,12.972,0,0,1,0,25.933c-6.684,0-12.113-5.853-12.113-13.048C299.8,137.72,305.231,131.939,311.915,131.939Z" fill="#fff"/>
        <path id="Path_11" data-name="Path 11" d="M344.28,151.812h6.273l.1-.055c.391-.009.757-.039,1.112-.078l6.353,12.262h6.818l-7.183-14.558c.278-.2.533-.42.794-.636a12.872,12.872,0,0,0,4.671-9.91c0-.3-.025-.6-.043-.9a13.17,13.17,0,0,0-12.635-11.956H338.382l-.058,37.955h5.956Zm0-19.927h5.938a7.127,7.127,0,0,1,2.517.463,6.891,6.891,0,0,1,4.083,8.948,7.053,7.053,0,0,1-6.6,4.542H344.28Z" fill="#fff"/>
        <path id="Path_12" data-name="Path 12" d="M78.124,149.433a1.289,1.289,0,0,1,.412-.839,1.452,1.452,0,0,1,1-.386h8.3a3.124,3.124,0,0,0,3.01-1.577l1.9-4.084H78.124v-10.54H96v-6.021H72.173v37.956h5.951Z" fill="#fff"/>
        <path id="Path_13" data-name="Path 13" d="M116.779,163.89a13.718,13.718,0,0,0,13.864-13.445v-24.46h-6.12v24.189a7.743,7.743,0,0,1-15.486,0V125.985h-6.061v24.46a13.989,13.989,0,0,0,2.266,7.3A13.818,13.818,0,0,0,116.779,163.89Z" fill="#fff"/>
        <path id="Path_14" data-name="Path 14" d="M148.129,137.185l15.634,26.756h6.609V125.986h-5.848v27.35l-15.683-27.35h-6.668v37.955h5.957Z" fill="#fff"/>
        <path id="Path_15" data-name="Path 15" d="M258.767,184.567l.573,7.519,1.424-.108-.7-9.139-1,.076-2.136.945.4,1.273Z" fill="#fff"/>
        <path id="Path_16" data-name="Path 16" d="M201.729,193a4.212,4.212,0,0,0,1.412-.917,4.283,4.283,0,0,0,.942-1.414,5.015,5.015,0,0,0,.374-1.782v-.026a4.952,4.952,0,0,0-.258-1.8,4.314,4.314,0,0,0-.848-1.465,4.146,4.146,0,0,0-1.35-1,4.437,4.437,0,0,0-1.75-.4l-3.054-.1-.3,9.1,3.054.1A4.353,4.353,0,0,0,201.729,193Zm-3.15-7.413,1.614.053a2.838,2.838,0,0,1,1.162.273,2.614,2.614,0,0,1,.875.675,2.954,2.954,0,0,1,.542,1,3.707,3.707,0,0,1,.164,1.246v.027a3.62,3.62,0,0,1-.245,1.226,2.957,2.957,0,0,1-.6.96,2.555,2.555,0,0,1-.916.611,2.911,2.911,0,0,1-1.178.189l-1.614-.052Z" fill="#fff"/>
        <path id="Path_17" data-name="Path 17" d="M171.512,187.855l4.117.355.125-1.437-4.117-.355.216-2.5,4.642.4.125-1.437-6.065-.524-.784,9.066,1.423.123Z" fill="#fff"/>
        <path id="Path_18" data-name="Path 18" d="M186.323,191.227l-4.685-.307.16-2.439,4.1.281.095-1.439-4.1-.269.154-2.361,4.625.329.094-1.439-6.051-.4-.595,9.08,6.109.4Z" fill="#fff"/>
        <path id="Path_19" data-name="Path 19" d="M264.706,185.553a3.241,3.241,0,0,0,.322,1.171,2.622,2.622,0,0,0,.675.851,2.584,2.584,0,0,0,.963.49,3.369,3.369,0,0,0,1.2.089,2.255,2.255,0,0,0,1.111-.38,2.5,2.5,0,0,0,.71-.759,5.378,5.378,0,0,1-.054,1.166,3.155,3.155,0,0,1-.305.947,1.83,1.83,0,0,1-.55.649,1.574,1.574,0,0,1-.791.284,2.222,2.222,0,0,1-.981-.116,3.584,3.584,0,0,1-.964-.562l-.666,1.287a4.881,4.881,0,0,0,1.215.668,3.327,3.327,0,0,0,1.5.163,2.977,2.977,0,0,0,1.434-.5,3.257,3.257,0,0,0,1.006-1.114,4.892,4.892,0,0,0,.541-1.624,7.977,7.977,0,0,0,.05-2.022l0-.026a7.023,7.023,0,0,0-.471-2.117,3.659,3.659,0,0,0-.846-1.245,2.931,2.931,0,0,0-1.029-.628,3.165,3.165,0,0,0-1.323-.116,3.126,3.126,0,0,0-1.212.356,2.9,2.9,0,0,0-.9.751,2.945,2.945,0,0,0-.529,1.055,3.41,3.41,0,0,0-.1,1.258Zm1.462-.9a1.639,1.639,0,0,1,.271-.568,1.47,1.47,0,0,1,.474-.41,1.728,1.728,0,0,1,.672-.194,1.619,1.619,0,0,1,1.865,1.509l0,.025a1.755,1.755,0,0,1-.052.639,1.532,1.532,0,0,1-.771.954,1.813,1.813,0,0,1-.684.195,1.647,1.647,0,0,1-1.265-.338,1.589,1.589,0,0,1-.56-1.122l0-.026A1.873,1.873,0,0,1,266.168,184.651Z" fill="#fff"/>
        <path id="Path_20" data-name="Path 20" d="M232.7,193.419a4.33,4.33,0,0,0,1.752-.4,4.209,4.209,0,0,0,1.357-1,4.272,4.272,0,0,0,.857-1.466,5.007,5.007,0,0,0,.269-1.8v-.025a4.958,4.958,0,0,0-.363-1.779,4.3,4.3,0,0,0-.933-1.413,4.1,4.1,0,0,0-1.406-.918,4.409,4.409,0,0,0-1.77-.3l-3.055.08.238,9.1Zm-.211-7.654a2.85,2.85,0,0,1,1.176.205,2.636,2.636,0,0,1,.912.622,2.96,2.96,0,0,1,.6.971,3.688,3.688,0,0,1,.237,1.234v.027a3.614,3.614,0,0,1-.172,1.238,2.951,2.951,0,0,1-.548.994,2.552,2.552,0,0,1-.879.662,2.9,2.9,0,0,1-1.164.259l-1.615.043-.162-6.212Z" fill="#fff"/>
        <path id="Path_21" data-name="Path 21" d="M247.63,192.848l-.067-1.441-4.689.219-.113-2.428,4.1-.192-.067-1.441-4.1.192-.109-2.338,4.63-.217-.067-1.441-6.057.283.425,9.091Z" fill="#fff"/>
        <path id="Path_22" data-name="Path 22" d="M222.335,192.3a3.03,3.03,0,0,1-1.384-.3,5,5,0,0,1-1.211-.87l-.859,1.15a4.9,4.9,0,0,0,1.61,1.088,4.706,4.706,0,0,0,1.817.346,3.686,3.686,0,0,0,1.18-.189,2.573,2.573,0,0,0,.918-.539,2.434,2.434,0,0,0,.592-.862,2.879,2.879,0,0,0,.208-1.145v-.026a2.614,2.614,0,0,0-.177-.981,2.136,2.136,0,0,0-.5-.737,2.786,2.786,0,0,0-.831-.534,8.52,8.52,0,0,0-1.147-.4q-.588-.151-.97-.293a2.38,2.38,0,0,1-.6-.3.861.861,0,0,1-.3-.361,1.21,1.21,0,0,1-.085-.461v-.026a.984.984,0,0,1,.347-.77,1.431,1.431,0,0,1,.981-.318,2.761,2.761,0,0,1,1.113.234,4.823,4.823,0,0,1,1.116.689l.766-1.214a4.733,4.733,0,0,0-1.358-.844,4.287,4.287,0,0,0-1.623-.282,3.147,3.147,0,0,0-1.121.2,2.632,2.632,0,0,0-.876.545,2.445,2.445,0,0,0-.57.836,2.687,2.687,0,0,0-.2,1.074v.025a2.815,2.815,0,0,0,.189,1.066,1.988,1.988,0,0,0,.532.744,3.13,3.13,0,0,0,.86.515,8.747,8.747,0,0,0,1.171.376,7.32,7.32,0,0,1,.935.28,2.161,2.161,0,0,1,.565.308.917.917,0,0,1,.283.356,1.148,1.148,0,0,1,.079.435v.026a1.008,1.008,0,0,1-.387.834A1.654,1.654,0,0,1,222.335,192.3Z" fill="#fff"/>
        <path id="Path_23" data-name="Path 23" d="M159.705,188.169l3.852.425.585,2.275,1.512.167-2.578-9.5-1.327-.147L157.16,190.1l1.466.162Zm2.475-4.815,1.009,3.773-2.8-.309Z" fill="#fff"/>
        <path id="Path_24" data-name="Path 24" d="M214.937,192.153l-4.694-.057.03-2.432,4.109.051.018-1.443-4.109-.05.029-2.34,4.635.057.018-1.443-6.063-.074-.111,9.1,6.122.075Z" fill="#fff"/>
        <path id="Path_25" data-name="Path 25" d="M185.568,181.249l-1.243-.72-1.378,2.047,1.1.072Z" fill="#fff"/>
        <path id="Path_26" data-name="Path 26" d="M296.286,182.518a1.769,1.769,0,0,0,.225.626,1.668,1.668,0,0,0,.413.472,1.592,1.592,0,0,0,.539.275,1.329,1.329,0,0,0,.6.032,1.378,1.378,0,0,0,.565-.227,1.6,1.6,0,0,0,.426-.437,1.688,1.688,0,0,0,.237-.581,1.808,1.808,0,0,0,.009-.665l0-.023a1.7,1.7,0,0,0-.231-.624,1.732,1.732,0,0,0-.418-.472,1.581,1.581,0,0,0-.539-.274,1.333,1.333,0,0,0-.6-.034,1.357,1.357,0,0,0-.559.228,1.542,1.542,0,0,0-.415.433,1.81,1.81,0,0,0-.237.582,1.73,1.73,0,0,0-.015.666Z" fill="#fff"/>
        <path id="Path_27" data-name="Path 27" d="M275,183.871a2.154,2.154,0,0,0,.477,1.2,2.565,2.565,0,0,0,.945.675,2.716,2.716,0,0,0-.983.978,2.268,2.268,0,0,0-.225,1.4l0,.026a2.409,2.409,0,0,0,.356,1.03,2.382,2.382,0,0,0,.746.736,3.147,3.147,0,0,0,1.05.407,3.982,3.982,0,0,0,1.254.043,4.126,4.126,0,0,0,1.212-.325,3.006,3.006,0,0,0,.927-.637,2.4,2.4,0,0,0,.554-.9,2.493,2.493,0,0,0,.106-1.117l0-.025a2.091,2.091,0,0,0-.556-1.275,3.15,3.15,0,0,0-1.162-.72,2.592,2.592,0,0,0,.764-.876,2.154,2.154,0,0,0,.185-1.281l0-.025a2.238,2.238,0,0,0-.328-.945,2.356,2.356,0,0,0-.677-.707,2.793,2.793,0,0,0-.955-.407,3.358,3.358,0,0,0-1.151-.055,3.3,3.3,0,0,0-1.111.32,2.721,2.721,0,0,0-.829.621,2.457,2.457,0,0,0-.5.845,2.2,2.2,0,0,0-.1.988Zm4.816,3.038a1.2,1.2,0,0,1,.2.546l0,.026a1.239,1.239,0,0,1-.341,1.015,1.873,1.873,0,0,1-1.21.541,1.852,1.852,0,0,1-1.3-.254,1.248,1.248,0,0,1-.565-.9l0-.025a1.191,1.191,0,0,1,.068-.577,1.366,1.366,0,0,1,.31-.475,1.618,1.618,0,0,1,.508-.341,2.231,2.231,0,0,1,.663-.175,2.268,2.268,0,0,1,.686.017,1.61,1.61,0,0,1,.573.215A1.378,1.378,0,0,1,279.817,186.909Zm-3.139-4.016a1.711,1.711,0,0,1,2.116-.247,1.2,1.2,0,0,1,.5.855l0,.027a1.252,1.252,0,0,1-.3,1.008,1.638,1.638,0,0,1-2.082.243,1.263,1.263,0,0,1-.526-.925l0-.025A1.179,1.179,0,0,1,276.678,182.893Z" fill="#fff"/>
        <path id="Path_28" data-name="Path 28" d="M285,184.9a6.436,6.436,0,0,0,.506,1.773,4.767,4.767,0,0,0,.923,1.372,3.463,3.463,0,0,0,1.253.833,3.108,3.108,0,0,0,2.9-.419,3.533,3.533,0,0,0,.976-1.157,4.821,4.821,0,0,0,.508-1.582,6.336,6.336,0,0,0,0-1.85l0-.027a6.324,6.324,0,0,0-.512-1.771,4.949,4.949,0,0,0-.923-1.372,3.418,3.418,0,0,0-1.247-.834,3.109,3.109,0,0,0-2.9.419,3.527,3.527,0,0,0-.976,1.156,4.859,4.859,0,0,0-.509,1.583,6.378,6.378,0,0,0,0,1.851Zm1.431-1.536a3.567,3.567,0,0,1,.267-1.075,2.208,2.208,0,0,1,.546-.774,1.57,1.57,0,0,1,1.705-.235,2.193,2.193,0,0,1,.754.6,3.842,3.842,0,0,1,.563.964,5.088,5.088,0,0,1,.328,1.234l0,.025a5.3,5.3,0,0,1,.034,1.276,3.574,3.574,0,0,1-.268,1.076,2.187,2.187,0,0,1-.546.773,1.578,1.578,0,0,1-1.71.236,2.267,2.267,0,0,1-.753-.6,3.508,3.508,0,0,1-.563-.964,5.3,5.3,0,0,1-.324-1.234l0-.027A5.236,5.236,0,0,1,286.427,183.36Z" fill="#fff"/>
        <path id="Path_29" data-name="Path 29" d="M147.594,187.615a4.132,4.132,0,0,0,1.173,1.165,3.809,3.809,0,0,0,1.6.587,4.678,4.678,0,0,0,1.053.033,3.486,3.486,0,0,0,.908-.2,4.361,4.361,0,0,0,.806-.4,5.441,5.441,0,0,0,.746-.573l-.774-1.156a5.126,5.126,0,0,1-1.173.712,2.484,2.484,0,0,1-1.32.139,2.335,2.335,0,0,1-1.038-.4,2.668,2.668,0,0,1-.758-.806,3.252,3.252,0,0,1-.416-1.1,3.907,3.907,0,0,1-.026-1.27l0-.026a3.852,3.852,0,0,1,.366-1.209,3.18,3.18,0,0,1,.7-.935,2.693,2.693,0,0,1,.945-.565,2.359,2.359,0,0,1,1.108-.1,2.5,2.5,0,0,1,1.2.48,4.651,4.651,0,0,1,.921.953l1.077-1.046a5.752,5.752,0,0,0-.537-.651,3.842,3.842,0,0,0-1.447-.948,4.72,4.72,0,0,0-1-.242,3.892,3.892,0,0,0-1.743.135,4.158,4.158,0,0,0-1.464.822,4.664,4.664,0,0,0-1.073,1.362,5.267,5.267,0,0,0-.559,1.766l0,.027a5.224,5.224,0,0,0,.067,1.859A4.63,4.63,0,0,0,147.594,187.615Z" fill="#fff"/>
        <path id="Path_30" data-name="Path 30" d="M140.064,183.6a1.572,1.572,0,0,0,.423.433,1.329,1.329,0,0,0,.56.224,1.372,1.372,0,0,0,.608-.035,1.571,1.571,0,0,0,.543-.277,1.644,1.644,0,0,0,.41-.475,1.778,1.778,0,0,0,.222-.626l0-.024a1.759,1.759,0,0,0-.264-1.246,1.586,1.586,0,0,0-.423-.433,1.381,1.381,0,0,0-1.162-.188,1.534,1.534,0,0,0-.532.279,1.774,1.774,0,0,0-.411.475,1.714,1.714,0,0,0-.227.626l0,.023a1.781,1.781,0,0,0,.013.664A1.671,1.671,0,0,0,140.064,183.6Z" fill="#fff"/>
        <g id="Group_5" data-name="Group 5">
          <path id="Path_31" data-name="Path 31" d="M186.323,191.227l-4.685-.307.16-2.439,4.1.281.095-1.439-4.1-.269.154-2.361,4.625.329.094-1.439-6.051-.4-.595,9.08,6.109.4Z" fill="none"/>
          <path id="Path_32" data-name="Path 32" d="M171.512,187.855l4.117.355.125-1.437-4.117-.355.216-2.5,4.642.4.125-1.437-6.065-.524-.784,9.066,1.423.123Z" fill="none"/>
          <path id="Path_33" data-name="Path 33" d="M185.568,181.249l-1.243-.72-1.378,2.047,1.1.072Z" fill="none"/>
          <path id="Path_34" data-name="Path 34" d="M201.729,193a4.212,4.212,0,0,0,1.412-.917,4.283,4.283,0,0,0,.942-1.414,5.015,5.015,0,0,0,.374-1.782v-.026a4.952,4.952,0,0,0-.258-1.8,4.314,4.314,0,0,0-.848-1.465,4.146,4.146,0,0,0-1.35-1,4.437,4.437,0,0,0-1.75-.4l-3.054-.1-.3,9.1,3.054.1A4.353,4.353,0,0,0,201.729,193Zm-3.15-7.413,1.614.053a2.838,2.838,0,0,1,1.162.273,2.614,2.614,0,0,1,.875.675,2.954,2.954,0,0,1,.542,1,3.707,3.707,0,0,1,.164,1.246v.027a3.62,3.62,0,0,1-.245,1.226,2.957,2.957,0,0,1-.6.96,2.555,2.555,0,0,1-.916.611,2.911,2.911,0,0,1-1.178.189l-1.614-.052Z" fill="none"/>
          <path id="Path_35" data-name="Path 35" d="M147.594,187.615a4.132,4.132,0,0,0,1.173,1.165,3.809,3.809,0,0,0,1.6.587,4.678,4.678,0,0,0,1.053.033,3.486,3.486,0,0,0,.908-.2,4.361,4.361,0,0,0,.806-.4,5.441,5.441,0,0,0,.746-.573l-.774-1.156a5.126,5.126,0,0,1-1.173.712,2.484,2.484,0,0,1-1.32.139,2.335,2.335,0,0,1-1.038-.4,2.668,2.668,0,0,1-.758-.806,3.252,3.252,0,0,1-.416-1.1,3.907,3.907,0,0,1-.026-1.27l0-.026a3.852,3.852,0,0,1,.366-1.209,3.18,3.18,0,0,1,.7-.935,2.693,2.693,0,0,1,.945-.565,2.359,2.359,0,0,1,1.108-.1,2.5,2.5,0,0,1,1.2.48,4.651,4.651,0,0,1,.921.953l1.077-1.046a5.752,5.752,0,0,0-.537-.651,3.842,3.842,0,0,0-1.447-.948,4.72,4.72,0,0,0-1-.242,3.892,3.892,0,0,0-1.743.135,4.158,4.158,0,0,0-1.464.822,4.664,4.664,0,0,0-1.073,1.362,5.267,5.267,0,0,0-.559,1.766l0,.027a5.224,5.224,0,0,0,.067,1.859A4.63,4.63,0,0,0,147.594,187.615Z" fill="none"/>
          <path id="Path_36" data-name="Path 36" d="M214.937,192.153l-4.694-.057.03-2.432,4.109.051.018-1.443-4.109-.05.029-2.34,4.635.057.018-1.443-6.063-.074-.111,9.1,6.122.075Z" fill="none"/>
          <path id="Path_37" data-name="Path 37" d="M159.705,188.169l3.852.425.585,2.275,1.512.167-2.578-9.5-1.327-.147L157.16,190.1l1.466.162Zm2.475-4.815,1.009,3.773-2.8-.309Z" fill="none"/>
          <path id="Path_38" data-name="Path 38" d="M140.064,183.6a1.572,1.572,0,0,0,.423.433,1.329,1.329,0,0,0,.56.224,1.372,1.372,0,0,0,.608-.035,1.571,1.571,0,0,0,.543-.277,1.644,1.644,0,0,0,.41-.475,1.778,1.778,0,0,0,.222-.626l0-.024a1.759,1.759,0,0,0-.264-1.246,1.586,1.586,0,0,0-.423-.433,1.381,1.381,0,0,0-1.162-.188,1.534,1.534,0,0,0-.532.279,1.774,1.774,0,0,0-.411.475,1.714,1.714,0,0,0-.227.626l0,.023a1.781,1.781,0,0,0,.013.664A1.671,1.671,0,0,0,140.064,183.6Z" fill="none"/>
          <path id="Path_39" data-name="Path 39" d="M247.63,192.848l-.067-1.441-4.689.219-.113-2.428,4.1-.192-.067-1.441-4.1.192-.109-2.338,4.63-.217-.067-1.441-6.057.283.425,9.091Z" fill="none"/>
          <path id="Path_40" data-name="Path 40" d="M275,183.871a2.154,2.154,0,0,0,.477,1.2,2.565,2.565,0,0,0,.945.675,2.716,2.716,0,0,0-.983.978,2.268,2.268,0,0,0-.225,1.4l0,.026a2.409,2.409,0,0,0,.356,1.03,2.382,2.382,0,0,0,.746.736,3.147,3.147,0,0,0,1.05.407,3.982,3.982,0,0,0,1.254.043,4.126,4.126,0,0,0,1.212-.325,3.006,3.006,0,0,0,.927-.637,2.4,2.4,0,0,0,.554-.9,2.493,2.493,0,0,0,.106-1.117l0-.025a2.091,2.091,0,0,0-.556-1.275,3.15,3.15,0,0,0-1.162-.72,2.592,2.592,0,0,0,.764-.876,2.154,2.154,0,0,0,.185-1.281l0-.025a2.238,2.238,0,0,0-.328-.945,2.356,2.356,0,0,0-.677-.707,2.793,2.793,0,0,0-.955-.407,3.358,3.358,0,0,0-1.151-.055,3.3,3.3,0,0,0-1.111.32,2.721,2.721,0,0,0-.829.621,2.457,2.457,0,0,0-.5.845,2.2,2.2,0,0,0-.1.988Zm4.816,3.038a1.2,1.2,0,0,1,.2.546l0,.026a1.239,1.239,0,0,1-.341,1.015,1.873,1.873,0,0,1-1.21.541,1.852,1.852,0,0,1-1.3-.254,1.248,1.248,0,0,1-.565-.9l0-.025a1.191,1.191,0,0,1,.068-.577,1.366,1.366,0,0,1,.31-.475,1.618,1.618,0,0,1,.508-.341,2.231,2.231,0,0,1,.663-.175,2.268,2.268,0,0,1,.686.017,1.61,1.61,0,0,1,.573.215A1.378,1.378,0,0,1,279.817,186.909Zm-3.139-4.016a1.711,1.711,0,0,1,2.116-.247,1.2,1.2,0,0,1,.5.855l0,.027a1.252,1.252,0,0,1-.3,1.008,1.638,1.638,0,0,1-2.082.243,1.263,1.263,0,0,1-.526-.925l0-.025A1.179,1.179,0,0,1,276.678,182.893Z" fill="none"/>
          <path id="Path_41" data-name="Path 41" d="M222.335,192.3a3.03,3.03,0,0,1-1.384-.3,5,5,0,0,1-1.211-.87l-.859,1.15a4.9,4.9,0,0,0,1.61,1.088,4.706,4.706,0,0,0,1.817.346,3.686,3.686,0,0,0,1.18-.189,2.573,2.573,0,0,0,.918-.539,2.434,2.434,0,0,0,.592-.862,2.879,2.879,0,0,0,.208-1.145v-.026a2.614,2.614,0,0,0-.177-.981,2.136,2.136,0,0,0-.5-.737,2.786,2.786,0,0,0-.831-.534,8.52,8.52,0,0,0-1.147-.4q-.588-.151-.97-.293a2.38,2.38,0,0,1-.6-.3.861.861,0,0,1-.3-.361,1.21,1.21,0,0,1-.085-.461v-.026a.984.984,0,0,1,.347-.77,1.431,1.431,0,0,1,.981-.318,2.761,2.761,0,0,1,1.113.234,4.823,4.823,0,0,1,1.116.689l.766-1.214a4.733,4.733,0,0,0-1.358-.844,4.287,4.287,0,0,0-1.623-.282,3.147,3.147,0,0,0-1.121.2,2.632,2.632,0,0,0-.876.545,2.445,2.445,0,0,0-.57.836,2.687,2.687,0,0,0-.2,1.074v.025a2.815,2.815,0,0,0,.189,1.066,1.988,1.988,0,0,0,.532.744,3.13,3.13,0,0,0,.86.515,8.747,8.747,0,0,0,1.171.376,7.32,7.32,0,0,1,.935.28,2.161,2.161,0,0,1,.565.308.917.917,0,0,1,.283.356,1.148,1.148,0,0,1,.079.435v.026a1.008,1.008,0,0,1-.387.834A1.654,1.654,0,0,1,222.335,192.3Z" fill="none"/>
          <path id="Path_42" data-name="Path 42" d="M285,184.9a6.436,6.436,0,0,0,.506,1.773,4.767,4.767,0,0,0,.923,1.372,3.463,3.463,0,0,0,1.253.833,3.108,3.108,0,0,0,2.9-.419,3.533,3.533,0,0,0,.976-1.157,4.821,4.821,0,0,0,.508-1.582,6.336,6.336,0,0,0,0-1.85l0-.027a6.324,6.324,0,0,0-.512-1.771,4.949,4.949,0,0,0-.923-1.372,3.418,3.418,0,0,0-1.247-.834,3.109,3.109,0,0,0-2.9.419,3.527,3.527,0,0,0-.976,1.156,4.859,4.859,0,0,0-.509,1.583,6.378,6.378,0,0,0,0,1.851Zm1.431-1.536a3.567,3.567,0,0,1,.267-1.075,2.208,2.208,0,0,1,.546-.774,1.57,1.57,0,0,1,1.705-.235,2.193,2.193,0,0,1,.754.6,3.842,3.842,0,0,1,.563.964,5.088,5.088,0,0,1,.328,1.234l0,.025a5.3,5.3,0,0,1,.034,1.276,3.574,3.574,0,0,1-.268,1.076,2.187,2.187,0,0,1-.546.773,1.578,1.578,0,0,1-1.71.236,2.267,2.267,0,0,1-.753-.6,3.508,3.508,0,0,1-.563-.964,5.3,5.3,0,0,1-.324-1.234l0-.027A5.236,5.236,0,0,1,286.427,183.36Z" fill="none"/>
          <path id="Path_43" data-name="Path 43" d="M264.706,185.553a3.241,3.241,0,0,0,.322,1.171,2.622,2.622,0,0,0,.675.851,2.584,2.584,0,0,0,.963.49,3.369,3.369,0,0,0,1.2.089,2.255,2.255,0,0,0,1.111-.38,2.5,2.5,0,0,0,.71-.759,5.378,5.378,0,0,1-.054,1.166,3.155,3.155,0,0,1-.305.947,1.83,1.83,0,0,1-.55.649,1.574,1.574,0,0,1-.791.284,2.222,2.222,0,0,1-.981-.116,3.584,3.584,0,0,1-.964-.562l-.666,1.287a4.881,4.881,0,0,0,1.215.668,3.327,3.327,0,0,0,1.5.163,2.977,2.977,0,0,0,1.434-.5,3.257,3.257,0,0,0,1.006-1.114,4.892,4.892,0,0,0,.541-1.624,7.977,7.977,0,0,0,.05-2.022l0-.026a7.023,7.023,0,0,0-.471-2.117,3.659,3.659,0,0,0-.846-1.245,2.931,2.931,0,0,0-1.029-.628,3.165,3.165,0,0,0-1.323-.116,3.126,3.126,0,0,0-1.212.356,2.9,2.9,0,0,0-.9.751,2.945,2.945,0,0,0-.529,1.055,3.41,3.41,0,0,0-.1,1.258Zm1.462-.9a1.639,1.639,0,0,1,.271-.568,1.47,1.47,0,0,1,.474-.41,1.728,1.728,0,0,1,.672-.194,1.619,1.619,0,0,1,1.865,1.509l0,.025a1.755,1.755,0,0,1-.052.639,1.532,1.532,0,0,1-.771.954,1.813,1.813,0,0,1-.684.195,1.647,1.647,0,0,1-1.265-.338,1.589,1.589,0,0,1-.56-1.122l0-.026A1.873,1.873,0,0,1,266.168,184.651Z" fill="none"/>
          <path id="Path_44" data-name="Path 44" d="M232.7,193.419a4.33,4.33,0,0,0,1.752-.4,4.209,4.209,0,0,0,1.357-1,4.272,4.272,0,0,0,.857-1.466,5.007,5.007,0,0,0,.269-1.8v-.025a4.958,4.958,0,0,0-.363-1.779,4.3,4.3,0,0,0-.933-1.413,4.1,4.1,0,0,0-1.406-.918,4.409,4.409,0,0,0-1.77-.3l-3.055.08.238,9.1Zm-.211-7.654a2.85,2.85,0,0,1,1.176.205,2.636,2.636,0,0,1,.912.622,2.96,2.96,0,0,1,.6.971,3.688,3.688,0,0,1,.237,1.234v.027a3.614,3.614,0,0,1-.172,1.238,2.951,2.951,0,0,1-.548.994,2.552,2.552,0,0,1-.879.662,2.9,2.9,0,0,1-1.164.259l-1.615.043-.162-6.212Z" fill="none"/>
          <path id="Path_45" data-name="Path 45" d="M296.286,182.518a1.769,1.769,0,0,0,.225.626,1.668,1.668,0,0,0,.413.472,1.592,1.592,0,0,0,.539.275,1.329,1.329,0,0,0,.6.032,1.378,1.378,0,0,0,.565-.227,1.6,1.6,0,0,0,.426-.437,1.688,1.688,0,0,0,.237-.581,1.808,1.808,0,0,0,.009-.665l0-.023a1.7,1.7,0,0,0-.231-.624,1.732,1.732,0,0,0-.418-.472,1.581,1.581,0,0,0-.539-.274,1.333,1.333,0,0,0-.6-.034,1.357,1.357,0,0,0-.559.228,1.542,1.542,0,0,0-.415.433,1.81,1.81,0,0,0-.237.582,1.73,1.73,0,0,0-.015.666Z" fill="none"/>
          <path id="Path_46" data-name="Path 46" d="M258.767,184.567l.573,7.519,1.424-.108-.7-9.139-1,.076-2.136.945.4,1.273Z" fill="none"/>
          <path id="Path_47" data-name="Path 47" d="M344.28,151.812h6.273l.1-.055c.391-.009.757-.039,1.112-.078l6.353,12.262h6.818l-7.183-14.558c.278-.2.533-.42.794-.636a12.872,12.872,0,0,0,4.671-9.91c0-.3-.025-.6-.043-.9a13.17,13.17,0,0,0-12.635-11.956H338.382l-.058,37.955h5.956Zm0-19.927h5.938a7.127,7.127,0,0,1,2.517.463,6.891,6.891,0,0,1,4.083,8.948,7.053,7.053,0,0,1-6.6,4.542H344.28Z" fill="none"/>
          <path id="Path_48" data-name="Path 48" d="M227.1,153.862h12.346l3.947,10.079h6.82l-14.887-37.955h-3.993L216.49,163.943h6.671Zm6.173-15.716,3.951,10.059h-7.906Z" fill="none"/>
          <path id="Path_49" data-name="Path 49" d="M287.553,144.927a19.155,19.155,0,0,0-18.875-18.942H258.227v37.957h10.451A18.964,18.964,0,0,0,287.553,144.927Zm-23.158,12.785V132.15h4.012a12.835,12.835,0,0,1,12.866,12.777,12.689,12.689,0,0,1-12.866,12.785Z" fill="none"/>
          <path id="Path_50" data-name="Path 50" d="M148.129,137.185l15.634,26.756h6.609V125.986h-5.848v27.35l-15.683-27.35h-6.668v37.955h5.957Z" fill="none"/>
          <path id="Path_51" data-name="Path 51" d="M211.866,144.927a19.156,19.156,0,0,0-18.874-18.942H182.541v37.957h10.442A18.967,18.967,0,0,0,211.866,144.927Zm-23.154,12.785V132.15h4.015a12.838,12.838,0,0,1,12.863,12.777,12.687,12.687,0,0,1-12.863,12.785Z" fill="none"/>
          <path id="Path_52" data-name="Path 52" d="M78.124,149.433a1.289,1.289,0,0,1,.412-.839,1.452,1.452,0,0,1,1-.386h8.3a3.124,3.124,0,0,0,3.01-1.577l1.9-4.084H78.124v-10.54H96v-6.021H72.173v37.956h5.951Z" fill="none"/>
          <path id="Path_53" data-name="Path 53" d="M116.779,163.89a13.718,13.718,0,0,0,13.864-13.445v-24.46h-6.12v24.189a7.743,7.743,0,0,1-15.486,0V125.985h-6.061v24.46a13.989,13.989,0,0,0,2.266,7.3A13.818,13.818,0,0,0,116.779,163.89Z" fill="none"/>
          <path id="Path_54" data-name="Path 54" d="M311.915,163.89c10.465,0,18.657-8.372,18.657-19.066a18.607,18.607,0,0,0-18.657-18.96c-10.019,0-18.179,8.506-18.179,18.96C293.736,155.336,301.9,163.89,311.915,163.89Zm0-31.951a12.972,12.972,0,0,1,0,25.933c-6.684,0-12.113-5.853-12.113-13.048C299.8,137.72,305.231,131.939,311.915,131.939Z" fill="none"/>
        </g>
      </g>
    </g>
  </g>
</svg>
